<svg viewBox="0 0 234 234" xmlns="http://www.w3.org/2000/svg" xml:space="preserve" style="fill-rule:evenodd;clip-rule:evenodd;stroke-linejoin:round;stroke-miterlimit:2">
  <desc>Traced by Dogo314</desc>
  <g transform="scale(.21667)">
    <path style="fill:none" d="M0 0h1080v1080H0z"/>
    <clipPath id="a">
      <path d="M0 0h1080v1080H0z"/>
    </clipPath>
    <g clip-path="url(#a)">
      <path d="m126-8 103.923 60v120L126 232 22.077 172V52z" style="fill:#ff8a26" transform="matrix(4.5 0 0 4.5 -27 36)"/>
      <path d="m599.993 696.913 92.308 92.308v64.615H387.686v-64.615l92.307-92.308zM558.455 374.17V170.76l32.307 23.077L607.807 406.9l29.109 20.013-23.857 16.398 33.088 161.294 27.692 27.692v83.077l-76.541-76.542a68.9 68.9 0 0 0 11.926-38.843c0-31.818-21.513-58.652-50.77-66.738V438.12a36.923 36.923 0 0 0 0-63.951m-36.922 0a36.923 36.923 0 0 0 0 63.95v95.133c-29.257 8.086-50.77 34.92-50.77 66.738 0 14.391 4.399 27.762 11.927 38.843l-76.542 76.542v-83.077l27.692-27.692 33.088-161.294-23.857-16.398 29.11-20.013 17.044-213.064 32.308-23.077z"/>
    </g>
  </g>
</svg>
