<svg viewBox="0 0 256 256" xmlns="http://www.w3.org/2000/svg" xml:space="preserve" style="fill-rule:evenodd;clip-rule:evenodd;stroke-linejoin:round;stroke-miterlimit:2">
  <desc>Traced by Dogo314</desc>
  <path style="fill:none" d="M29-601h261v261H29z" transform="translate(-28.444 589.487)scale(.98084)"/>
  <path d="m2271 196 48-56 16 16h16l40 40zm28.311-45.322-9.964-81.149 11.911-1.462 8.628 70.273zm9.864-84.077C2313.713 64.051 2320.848 61 2329 61c14 0 8 4 22 4 10.486 0 20.411-6.171 24.733-9.269l5.45 44.389c-4.573 3.197-14.12 8.88-24.183 8.88-14 0-8-4-22-4-8.495 0-15.885 3.313-20.383 5.919z" style="fill:#ffe" transform="translate(-2207.993 .002)"/>
  <path d="M508 232h-32l32-32zm-208 0v-32l32 32zM508 24v32l-32-32zm-208 0h32l-32 32z" style="fill:#c9b269" transform="translate(-275.998 .002)"/>
</svg>
